<svg height="512" viewBox="0 0 24 24" width="512" xmlns="http://www.w3.org/2000/svg"><g id="check"><path d="m19 2h-14c-1.6503906 0-3 1.3500977-3 3v14c0 1.6499023 1.3496094 3 3 3h14c1.6503906 0 3-1.3500977 3-3v-14c0-1.6499023-1.3496094-3-3-3zm-2.5400391 8.2099609-5 5c-.2001953.1899414-.4501953.2900391-.7099609.2900391s-.5097656-.1000977-.7099609-.2900391l-2.5-2.5c-.3896484-.3901367-.3896484-1.0297852 0-1.4199219s1.0302734-.3901367 1.4199219 0l1.790039 1.7998048 4.2900391-4.2998047c.3896484-.3901367 1.0302734-.3901367 1.4199219 0s.3896484 1.0297851-.0000001 1.4199218z"/></g></svg>