<svg width="1071" height="261" viewBox="0 0 1071 261" fill="none" xmlns="http://www.w3.org/2000/svg">
<path d="M1.35833 12.4C2.05833 12.3 2.85833 12.2 3.65833 12.2C25.6583 12.2 47.6583 12.1 69.6583 12.2C80.2583 12.2 90.6583 13.5 100.758 16.9C111.258 20.5 120.358 26.1 127.358 34.8C134.258 43.3 138.058 53.1 139.658 63.8C141.458 76.7 140.458 89.3 135.458 101.4C130.658 113.2 122.558 122.2 111.558 128.4C110.558 128.9 109.658 129.5 108.358 130.2C121.658 152 134.858 173.5 148.358 195.6C146.658 195.6 145.558 195.6 144.458 195.6C131.258 195.6 118.058 195.6 104.858 195.7C102.758 195.7 101.558 195 100.458 193.2C89.9583 176 79.2583 158.7 68.6583 141.3C67.2583 138.9 65.6583 137.9 62.7583 138C57.2583 138.2 51.7583 138.1 46.1583 138.1C44.9583 138.1 43.7583 138.1 42.0583 138.1C41.7583 143.1 41.9583 147.9 41.9583 152.7C41.9583 157.4 41.9583 162.1 41.9583 166.8C41.9583 171.6 41.9583 176.4 41.9583 181.2C41.9583 185.9 41.9583 190.6 41.9583 195.5H1.55833C0.858327 192.8 0.758327 15.3 1.35833 12.4ZM42.0583 100.4C43.0583 100.5 43.5583 100.6 44.0583 100.6C53.4583 100.6 62.8583 100.7 72.2583 100.5C75.1583 100.4 78.1583 99.9 81.0583 99.2C88.9583 97.2 94.6583 92.6 96.8583 84.6C98.4583 78.8 98.5583 72.9 97.2583 67C95.6583 59.7 91.4583 54.7 84.4583 52.2C81.6583 51.2 78.7583 50.3 75.8583 50.2C65.1583 49.8 54.4583 49.8 43.6583 49.7C43.2583 49.7 42.8583 49.8 42.0583 50C42.0583 66.8 42.0583 83.5 42.0583 100.4Z" fill="#EC2A4D"/>
<path d="M683.058 170.2V260.2C680.858 260.8 648.058 261 644.858 260.4V65.6C646.958 65 674.958 64.7 679.458 65.4C680.058 75 680.658 84.6 681.258 94.3C681.558 94.4 681.458 94.4 681.758 94.4C682.258 93.5 682.658 92.6 683.158 91.7C686.858 84.2 691.658 77.5 698.258 72.2C717.258 56.9 749.058 57.9 766.358 81.5C772.758 90.3 776.558 100.1 778.458 110.7C781.358 126.7 781.058 142.7 776.358 158.4C773.358 168.6 768.458 177.9 760.658 185.4C749.858 195.7 736.758 199.6 722.058 198C706.458 196.3 694.858 188.1 686.658 175C685.658 173.4 684.758 171.8 683.758 170.3C683.258 170.2 683.358 170.2 683.058 170.2ZM718.158 157.2C732.758 157.5 745.058 152.3 750.758 143.3C756.058 134.9 756.158 126.3 751.258 117.8C745.858 108.3 733.458 102.9 717.958 103.1C703.058 103.2 690.858 109.1 685.858 118.6C681.958 126 681.858 133.5 685.358 140.9C690.358 150.9 702.358 156.9 718.158 157.2Z" fill="#EC2A4D"/>
<path d="M591.558 118.4C592.558 105.5 586.258 96.9 574.558 94.6C568.758 93.5 563.158 94.2 557.958 97.3C552.658 100.5 550.058 105.4 548.858 111.4H513.158C513.058 107.9 513.958 104.6 514.958 101.5C522.258 78.6 538.358 66 561.858 62.6C574.558 60.8 587.058 62.3 598.858 67.4C616.058 75 626.258 88.2 629.158 106.9C629.758 110.8 630.058 114.8 630.058 118.8C630.058 143.4 630.058 168.1 629.958 192.7C629.958 193.5 629.858 194.3 629.858 195.1C627.858 195.7 600.058 196 595.558 195.4C595.458 193.8 594.558 189.8 594.458 186.5C594.458 185.5 593.158 185 592.458 185.8C585.758 193.2 575.658 197.3 565.658 198.6C550.458 200.5 534.058 198.9 521.758 189.3C511.958 181.6 507.658 169.2 509.058 157.1C510.658 143.3 518.158 133.6 530.058 126.9C538.558 122.1 547.858 119.5 557.558 119C567.558 118.4 577.558 118.5 587.558 118.3C588.958 118.4 590.158 118.4 591.558 118.4ZM591.558 140.6C590.958 140.5 590.558 140.3 590.258 140.3C581.058 140.4 571.858 140.3 562.758 140.6C559.258 140.7 555.958 141.7 552.858 143.6C549.658 145.6 547.858 148.3 547.558 152.1C547.158 157.8 549.858 161.8 555.658 163.5C562.458 165.5 569.358 165.3 576.158 162.9C585.858 159.3 591.558 151.1 591.558 140.6Z" fill="#EC2A4D"/>
<path d="M1032.26 116.4C1033.26 103.5 1026.96 94.9 1015.26 92.6C1009.46 91.5 1003.86 92.2 998.658 95.3C993.358 98.5 990.758 103.4 989.558 109.4H953.958C953.858 105.9 954.758 102.6 955.758 99.5C963.058 76.6 979.158 64 1002.66 60.6C1015.36 58.8 1027.86 60.3 1039.66 65.4C1056.86 73 1067.06 86.2 1069.96 104.9C1070.56 108.8 1070.86 112.8 1070.86 116.8C1070.86 141.4 1070.86 166.1 1070.76 190.7C1070.76 191.5 1070.66 192.3 1070.66 193.1C1068.66 193.7 1040.86 194 1036.36 193.4C1036.26 191.8 1035.36 187.8 1035.26 184.5C1035.26 183.5 1033.96 183 1033.26 183.8C1026.56 191.2 1016.46 195.3 1006.46 196.6C991.258 198.5 974.858 196.9 962.558 187.3C952.758 179.6 948.458 167.2 949.858 155.1C951.458 141.3 958.958 131.6 970.858 124.9C979.358 120.1 988.658 117.5 998.358 117C1008.36 116.4 1018.36 116.5 1028.36 116.3C1029.66 116.4 1030.86 116.4 1032.26 116.4ZM1032.26 138.6C1031.66 138.5 1031.26 138.3 1030.96 138.3C1021.76 138.4 1012.56 138.3 1003.46 138.6C999.958 138.7 996.658 139.7 993.558 141.6C990.358 143.6 988.558 146.3 988.258 150.1C987.858 155.8 990.558 159.8 996.358 161.5C1003.16 163.5 1010.06 163.3 1016.86 160.9C1026.56 157.3 1032.26 149.1 1032.26 138.6Z" fill="#EC2A4D"/>
<path d="M218.558 130C218.658 118 220.758 106.4 226.358 95.7C233.958 81.1 245.658 71.3 261.158 66.1C277.458 60.7 293.958 60.5 310.258 65.7C331.258 72.4 344.758 86.7 350.958 107.7C355.558 123.3 355.458 139.1 350.358 154.5C343.158 176.4 328.158 190.3 305.758 195.9C291.158 199.6 276.558 199.3 262.158 194.6C239.558 187.2 225.958 171.3 220.458 148.4C219.158 142.3 218.558 136.2 218.558 130ZM316.358 128.4C318.058 124.2 319.658 118.7 320.558 113.4C323.158 97.2 317.058 87.2 304.358 87C291.358 86.8 277.158 96.2 266.358 112.5C258.858 123.8 254.258 135.2 252.258 146.6C249.158 164.7 256.358 174.6 271.458 173.3C281.858 172.4 291.958 166 301.458 154.5C307.858 146.8 312.358 138.5 316.358 128.4Z" fill="#EC2A4D"/>
<path d="M497.558 117C496.158 117 495.158 117 494.158 117C483.758 117 473.258 116.9 462.858 117.1C460.358 117.1 459.158 116.4 458.058 114C450.758 97.1 433.058 93.6 420.158 99.3C411.358 103.2 406.358 110.3 404.158 119.4C402.158 127.6 402.358 135.8 405.058 143.9C411.258 162 432.458 169.3 448.158 158.7C452.558 155.8 455.658 151.8 457.858 147.1C458.358 146 458.858 144.9 459.458 143.7H497.358C497.258 144.6 497.258 145.4 497.158 146.2C493.358 164.9 484.058 179.7 467.258 189.4C458.658 194.4 449.158 197 439.258 197.9C426.558 199 414.158 197.7 402.258 192.6C387.058 186.1 376.158 175.2 370.058 159.8C362.358 140.3 362.258 120.4 369.858 100.8C376.658 83.4 389.358 71.8 407.058 65.9C424.458 60.2 441.958 60.3 459.058 67C477.358 74.1 489.158 87.6 495.058 106.3C495.758 108.6 496.358 111 496.858 113.4C497.158 114.4 497.258 115.4 497.558 117Z" fill="#EC2A4D"/>
<path d="M831.458 195.6H793.258V65.3H827.858C828.458 73.7 829.058 82.1 829.658 90.5C835.258 79.9 842.558 71.3 853.558 66.3C859.758 63.4 866.358 62.3 873.058 62C873.858 64.3 874.058 95.3 873.358 100.6C872.158 100.7 870.858 100.7 869.558 100.8C863.458 100.9 857.258 100.5 851.258 101.9C846.858 102.8 842.858 104.4 839.258 107.2C834.358 110.9 831.858 115.8 831.558 121.9C831.458 123.3 831.558 124.8 831.558 126.2C831.558 147.9 831.558 169.6 831.558 191.2C831.458 192.4 831.458 193.8 831.458 195.6Z" fill="#EC2A4D"/>
<path d="M203.058 195.7H165.058C164.358 193.4 164.058 69.4 164.758 65.3H202.958C203.058 66.3 203.258 67.4 203.258 68.4C203.258 109.7 203.258 151 203.258 192.3C203.258 193.3 203.158 194.3 203.058 195.7Z" fill="#EC2A4D"/>
<path d="M183.758 -9.98122e-06C196.558 -0.20001 206.958 9.89999 207.158 22.6C207.358 35.8 197.358 46.1 184.158 46.3C171.058 46.5 160.658 36.5 160.558 23.3C160.458 10.2 170.358 0.19999 183.758 -9.98122e-06Z" fill="#EC2A4D"/>
<path d="M889.458 65.1H927.658C927.758 66.2 927.958 67.3 927.958 68.4C927.958 109.7 927.958 151 927.958 192.3C927.958 193.3 927.858 194.3 927.758 195.6H889.758C888.958 193.3 888.658 69.8 889.458 65.1Z" fill="#EC2A4D"/>
<path d="M931.858 23C931.858 36.1 921.658 46.4 908.558 46.4C895.358 46.4 885.258 36.3 885.258 23C885.258 9.89999 895.458 -9.98122e-06 908.858 -9.98122e-06C921.558 -9.98122e-06 931.758 10.2 931.858 23Z" fill="#EC2A4D"/>
</svg>
