<svg xmlns="http://www.w3.org/2000/svg" version="1.1" xmlns:xlink="http://www.w3.org/1999/xlink" width="512" height="512" x="0" y="0" viewBox="0 0 512 512" style="enable-background:new 0 0 512 512" xml:space="preserve" class=""><g><path d="M456 80H56c-30.878 0-56 25.122-56 56v240c0 30.878 25.122 56 56 56h400c30.878 0 56-25.122 56-56V136c0-30.878-25.122-56-56-56zM56 112h400c13.233 0 24 10.767 24 24v32H32v-32c0-13.233 10.767-24 24-24zm400 288H56c-13.233 0-24-10.767-24-24V200h448v176c0 13.233-10.767 24-24 24z" fill="#5b523f" opacity="1" data-original="#000000" class=""></path><path d="M112 352H96c-8.836 0-16-7.164-16-16v-16c0-8.836 7.164-16 16-16h16c8.836 0 16 7.164 16 16v16c0 8.836-7.164 16-16 16z" fill="#5b523f" opacity="1" data-original="#000000" class=""></path></g></svg>