<svg width="5833" height="303" viewBox="0 0 5833 303" fill="none" xmlns="http://www.w3.org/2000/svg">
<path d="M1346.75 22.7332C1039.55 22.7335 796.123 209.012 551.063 263.714L5310.05 263.715C5182.98 263.715 5010.54 0.490723 4650.51 0.490723C4290.49 0.490723 3963.74 311.91 3503.88 109.513C3044.01 -92.8844 2701.69 215.518 2375.39 215.518C1813.81 215.518 1771.75 22.7327 1346.75 22.7332Z" fill="#FF6A15"/>
<path d="M975.713 61.51C599.273 61.5104 300.97 247.789 0.672852 302.491L5832.38 302.491C5676.67 302.491 5465.34 39.2676 5024.17 39.2676C4582.99 39.2676 4182.59 350.687 3619.07 148.29C3055.55 -54.1076 2636.07 254.295 2236.22 254.295C1548.05 254.295 1496.51 61.5095 975.713 61.51Z" fill="#FD3558"/>
</svg>
