<svg xmlns="http://www.w3.org/2000/svg" version="1.1" xmlns:xlink="http://www.w3.org/1999/xlink" width="512" height="512" x="0" y="0" viewBox="0 0 512 512" style="enable-background:new 0 0 512 512" xml:space="preserve" class=""><g><path d="M234.525 120.988c-6.49 0-11.755 5.265-11.755 11.755v39.582c0 18.874-15.358 34.01-34.01 34.01-18.75 0-34.01-15.26-34.01-34.01v-39.582c0-6.49-5.265-11.755-11.755-11.755s-11.755 5.265-11.755 11.755v39.582c0 31.714 25.806 57.521 57.521 57.521 31.693 0 57.521-25.733 57.521-57.521v-39.582c-.001-6.49-5.267-11.755-11.757-11.755z" fill="#4a4031" opacity="1" data-original="#000000" class=""></path><path d="M408.503 180.475c-.788.249-16.691-2.314-16.691 11.755 0 14.087 15.908 11.508 16.691 11.755 28.309 0 38.022 23.117 65.74 47.411 5.397 5.397 9.094 12.215 11.128 19.515H376.138V121.539c0-21.911-17.793-39.735-39.658-39.735H41.04c-21.911 0-39.735 17.824-39.735 39.735v229.386c0 21.903 17.824 39.727 39.735 39.727h29.927c5.333 22.628 25.649 39.544 49.88 39.544s44.546-16.916 49.88-39.544H381.79c5.333 22.628 25.649 39.544 49.88 39.544 24.857 0 45.624-17.786 50.289-41.294 16.526-4.837 28.736-19.996 28.736-37.977v-68.258c0-17.832-7.225-35.288-19.822-47.893-25.709-21.633-41.087-54.299-82.37-54.299zM120.846 406.686c-15.31 0-27.758-12.441-27.777-27.747 0-.014.004-.027.004-.042 0-.011-.003-.022-.003-.034.023-15.301 12.469-27.739 27.776-27.739 15.321 0 27.781 12.459 27.781 27.781s-12.459 27.781-27.781 27.781zm49.876-39.544c-5.339-22.62-25.65-39.528-49.876-39.528s-44.537 16.908-49.876 39.528H41.04c-8.946 0-16.225-7.278-16.225-16.217V121.539c0-8.946 7.278-16.225 16.225-16.225h295.44c8.901 0 16.148 7.278 16.148 16.225v245.603H170.722zm260.947 39.544c-15.322 0-27.781-12.459-27.781-27.781s12.459-27.781 27.781-27.781c15.314 0 27.773 12.459 27.773 27.781s-12.459 27.781-27.773 27.781zm49.01-42.877c-6.461-20.935-25.984-36.195-49.009-36.195-24.225 0-44.537 16.908-49.876 39.528h-5.655v-72.72h111.046v56.503c0 5.256-2.581 9.913-6.506 12.884z" fill="#4a4031" opacity="1" data-original="#000000" class=""></path></g></svg>