<svg viewBox="0 0 512 512" xmlns="http://www.w3.org/2000/svg" xmlns:xlink="http://www.w3.org/1999/xlink"><linearGradient id="linear-gradient" gradientUnits="userSpaceOnUse" x1=".07" x2="512.07" y1="258.58" y2="258.58"><stop offset="0" stop-color="#ef5425"/><stop offset="1" stop-color="#fca84c"/></linearGradient><g id="GRADIENT"><path d="m510.86 159.3c-1-1.71-21.62-26.6-24-29.23-2.24-2.78-23.73-26.89-25.27-28.13a8.81 8.81 0 0 0 -9.89-.75 48 48 0 0 0 -7.56 5.48 48.74 48.74 0 0 0 -6.44 6.79 9.06 9.06 0 0 0 -.65 10c.45.78 5 6.34 10 12.43l2 2.28-24.78 16.59c-22.74-20.58-52.33-34.16-86.27-37.82l5.55-28h8.14c10.92-.2 20.85-.45 22.1-.64a14.11 14.11 0 0 0 11-8.43 54.71 54.71 0 0 0 2.76-11.18 49.79 49.79 0 0 0 .38-11.19 9.77 9.77 0 0 0 -8.73-8.5c-2.64-.42-47.18-1.12-52.13-1-4.91-.13-49.66.57-52.41 1a14.13 14.13 0 0 0 -11 8.43 53.54 53.54 0 0 0 -2.76 11.19 49.24 49.24 0 0 0 -.39 11.18 9.76 9.76 0 0 0 8.61 8.43c1.2.19 11.06.44 21.92.64h13.65l-5.22 26.4a17.59 17.59 0 0 0 -.26 1.75 199.73 199.73 0 0 0 -79.91 27.18 48.44 48.44 0 0 1 -24.74 6.8h-51.63-.13-.06-96.92a18.87 18.87 0 0 0 -18.82 18.86v.2a18.87 18.87 0 0 0 18.86 18.86l83.84.05a18.87 18.87 0 0 1 17.5 18.81v.22a18.87 18.87 0 0 1 -18.87 18.87h-43a18.86 18.86 0 0 0 -18.95 18.83v.19a18.86 18.86 0 0 0 18.86 18.86h14.52a18.86 18.86 0 0 1 18.86 18.87v.19a18.86 18.86 0 0 1 -18.86 18.86h-80.83a18.85 18.85 0 0 0 -18.86 18.86v.19a18.86 18.86 0 0 0 18.86 18.87h83a18.86 18.86 0 0 1 18.87 18.86v.19a18.86 18.86 0 0 1 -18.87 18.86h-30.73a18.86 18.86 0 0 0 -18.86 18.87v.19a18.85 18.85 0 0 0 18.86 18.86h59.36a48.33 48.33 0 0 1 32.82 12.89c26.94 24.9 63.74 39.84 106.13 39.84 97.54 0 187.72-79.07 201.43-176.61 5.76-41-2.89-78.64-22.07-108.6l25-16.75 1.63 1.91c5.27 5.86 10.09 11.15 10.78 11.72a8.86 8.86 0 0 0 9.9.75 47.58 47.58 0 0 0 7.56-5.49 48.22 48.22 0 0 0 6.44-6.78 9.06 9.06 0 0 0 .68-10zm-77.55 128a157.09 157.09 0 0 1 -19 55.38 177.06 177.06 0 0 1 -37.69 46.22 174.74 174.74 0 0 1 -50.5 31.1 152.29 152.29 0 0 1 -56.61 11.17c-35.68 0-67.07-13.51-88.4-38-21.73-25-30.88-58.83-25.76-95.27a157.18 157.18 0 0 1 19-55.38 177.22 177.22 0 0 1 37.68-46.22 175.14 175.14 0 0 1 50.5-31.13 152.24 152.24 0 0 1 56.6-11.17c35.68 0 67.08 13.51 88.41 38 21.75 25 30.89 58.81 25.77 95.25zm-64.59-7.71-66.62 102.75a8.31 8.31 0 0 1 -7 3.79h-5.22a8.31 8.31 0 0 1 -8.07-10.26l16.42-67.75h-40a7.41 7.41 0 0 1 -7.23-9.12l22.21-91.66a7.41 7.41 0 0 1 7.2-5.66h46.09a7.4 7.4 0 0 1 7.19 9.15l-13.55 55.92h41.61a8.31 8.31 0 0 1 6.97 12.79zm-352.8-33.84a18.9 18.9 0 0 1 18.91-18.91 18.91 18.91 0 0 1 18.91 18.91 18.91 18.91 0 0 1 -18.91 18.91 18.91 18.91 0 0 1 -18.91-18.91z" fill="url(#linear-gradient)"/></g></svg>