<?xml version="1.0" encoding="UTF-8" standalone="no"?>
<!-- Created with Inkscape (http://www.inkscape.org/) -->

<svg
   version="1.1"
   id="svg429"
   xml:space="preserve"
   width="682.66669"
   height="682.66669"
   viewBox="0 0 682.66669 682.66669"
   xmlns="http://www.w3.org/2000/svg"
   xmlns:svg="http://www.w3.org/2000/svg"><defs
     id="defs433"><clipPath
       clipPathUnits="userSpaceOnUse"
       id="clipPath443"><path
         d="M 0,512 H 512 V 0 H 0 Z"
         id="path441" /></clipPath></defs><g
     id="g435"
     transform="matrix(1.3333333,0,0,-1.3333333,0,682.66667)"><g
       id="g437"><g
         id="g439"
         clip-path="url(#clipPath443)"><g
           id="g445"
           transform="translate(100.0244,190.9141)"><path
             d="m 0,0 v -0.032 l 34.463,-8.186 8.186,-34.471 35.315,2.868 18.436,-30.254 26.253,10.95 -116.789,-116.789 -22.725,68.171 -68.163,22.718 z"
             style="fill:none;stroke:#000000;stroke-width:30;stroke-linecap:round;stroke-linejoin:round;stroke-miterlimit:10;stroke-dasharray:none;stroke-opacity:1"
             id="path447" /></g><g
           id="g449"
           transform="translate(411.9756,190.9141)"><path
             d="m 0,0 v -0.032 l -34.463,-8.186 -8.186,-34.471 -35.315,2.868 -18.436,-30.254 -26.253,10.95 116.789,-116.789 22.725,68.171 68.163,22.718 z"
             style="fill:none;stroke:#000000;stroke-width:30;stroke-linecap:round;stroke-linejoin:round;stroke-miterlimit:10;stroke-dasharray:none;stroke-opacity:1"
             id="path451" /></g><g
           id="g453"
           transform="translate(256,497)"><path
             d="m 0,0 26.88,-23.072 32.695,13.641 18.437,-30.254 35.314,2.868 8.187,-34.471 34.463,-8.186 -2.869,-35.306 30.253,-18.437 -13.631,-32.696 23.071,-26.887 -23.071,-26.88 13.631,-32.695 -30.253,-18.437 2.869,-35.306 -34.463,-8.186 -8.187,-34.471 -35.314,2.868 L 59.575,-376.161 26.88,-362.52 0,-385.6 l -26.88,23.08 -32.695,-13.641 -18.437,30.254 -35.314,-2.868 -8.187,34.471 -34.463,8.186 2.869,35.306 -30.253,18.437 13.631,32.695 -23.071,26.88 23.071,26.887 -13.631,32.696 30.253,18.437 -2.869,35.306 34.463,8.186 8.187,34.471 35.314,-2.868 18.437,30.254 32.695,-13.641 z"
             style="fill:none;stroke:#000000;stroke-width:30;stroke-linecap:round;stroke-linejoin:round;stroke-miterlimit:10;stroke-dasharray:none;stroke-opacity:1"
             id="path455" /></g></g></g><g
       id="g457"
       transform="translate(239.9336,298.689)"><path
         d="M 0,0 -42.923,42.922 -88.367,-2.522 0,-90.889 128.533,37.645 83.089,83.089 Z"
         style="fill:none;stroke:#000000;stroke-width:30;stroke-linecap:round;stroke-linejoin:round;stroke-miterlimit:10;stroke-dasharray:none;stroke-opacity:1"
         id="path459" /></g></g></svg>
