<svg width="507" height="64" viewBox="0 0 507 64" fill="none" xmlns="http://www.w3.org/2000/svg">
<path d="M0.0390625 54.3178V1.46219H45.4197V10.1338H9.84953V27.8074H43.7571V36.479H9.84953V54.3178H45.4197V62.9893H9.84953V54.3178H0.0390625Z" fill="black"/>
<path d="M0.0390625 54.3178V1.46219H45.4197V10.1338H9.84953V27.8074H43.7571V36.479H9.84953V54.3178H45.4197V62.9893H9.84953V54.3178H0.0390625Z" fill="black"/>
<path d="M71.2187 63.9803C66.6186 63.9803 62.5721 62.8515 59.0806 60.5944C55.644 58.3369 53.2331 55.3088 51.8472 51.5098L59.0806 48.1239C60.2999 50.6564 61.9627 52.666 64.0686 54.1526C66.2303 55.6392 68.614 56.3822 71.2187 56.3822C73.4357 56.3822 75.2371 55.8867 76.6231 54.8956C78.0086 53.9046 78.7014 52.5557 78.7014 50.8491C78.7014 49.7477 78.3965 48.8669 77.7871 48.2062C77.1772 47.4906 76.4011 46.9123 75.4591 46.4721C74.572 46.0315 73.6577 45.7012 72.7153 45.4811L65.6485 43.4989C61.7688 42.3977 58.8586 40.746 56.919 38.5437C55.0342 36.2863 54.0922 33.671 54.0922 30.6979C54.0922 28.0001 54.785 25.6601 56.1705 23.678C57.556 21.6409 59.4685 20.0718 61.907 18.9706C64.3459 17.8694 67.0893 17.3189 70.1381 17.3189C74.2394 17.3189 77.8976 18.3374 81.1123 20.3746C84.3273 22.3566 86.5995 25.1371 87.9298 28.7158L80.6968 32.1019C79.8101 29.9546 78.3965 28.2478 76.4568 26.9815C74.572 25.7152 72.438 25.082 70.0548 25.082C68.0041 25.082 66.3689 25.5775 65.1497 26.5686C63.9304 27.5045 63.3206 28.7434 63.3206 30.285C63.3206 31.3311 63.5979 32.212 64.152 32.9278C64.7061 33.5885 65.427 34.139 66.3137 34.5795C67.2003 34.9649 68.1151 35.2953 69.0571 35.5705L76.3735 37.7178C80.0869 38.7639 82.9414 40.4156 84.9367 42.673C86.9321 44.8753 87.9298 47.5181 87.9298 50.6015C87.9298 53.2443 87.2094 55.5842 85.7681 57.6213C84.3826 59.6034 82.4425 61.1723 79.9483 62.3286C77.4545 63.4299 74.5444 63.9803 71.2187 63.9803Z" fill="black"/>
<path d="M71.2187 63.9803C66.6186 63.9803 62.5721 62.8515 59.0806 60.5944C55.644 58.3369 53.2331 55.3088 51.8472 51.5098L59.0806 48.1239C60.2999 50.6564 61.9627 52.666 64.0686 54.1526C66.2303 55.6392 68.614 56.3822 71.2187 56.3822C73.4357 56.3822 75.2371 55.8867 76.6231 54.8956C78.0086 53.9046 78.7014 52.5557 78.7014 50.8491C78.7014 49.7477 78.3965 48.8669 77.7871 48.2062C77.1772 47.4906 76.4011 46.9123 75.4591 46.4721C74.572 46.0315 73.6577 45.7012 72.7153 45.4811L65.6485 43.4989C61.7688 42.3977 58.8586 40.746 56.919 38.5437C55.0342 36.2863 54.0922 33.671 54.0922 30.6979C54.0922 28.0001 54.785 25.6601 56.1705 23.678C57.556 21.6409 59.4685 20.0718 61.907 18.9706C64.3459 17.8694 67.0893 17.3189 70.1381 17.3189C74.2394 17.3189 77.8976 18.3374 81.1123 20.3746C84.3273 22.3566 86.5995 25.1371 87.9298 28.7158L80.6968 32.1019C79.8101 29.9546 78.3965 28.2478 76.4568 26.9815C74.572 25.7152 72.438 25.082 70.0548 25.082C68.0041 25.082 66.3689 25.5775 65.1497 26.5686C63.9304 27.5045 63.3206 28.7434 63.3206 30.285C63.3206 31.3311 63.5979 32.212 64.152 32.9278C64.7061 33.5885 65.427 34.139 66.3137 34.5795C67.2003 34.9649 68.1151 35.2953 69.0571 35.5705L76.3735 37.7178C80.0869 38.7639 82.9414 40.4156 84.9367 42.673C86.9321 44.8753 87.9298 47.5181 87.9298 50.6015C87.9298 53.2443 87.2094 55.5842 85.7681 57.6213C84.3826 59.6034 82.4425 61.1723 79.9483 62.3286C77.4545 63.4299 74.5444 63.9803 71.2187 63.9803Z" fill="black"/>
<path d="M110.255 63.4848C105.544 63.4848 101.886 62.1634 99.2804 59.5206C96.6757 56.8778 95.373 53.1615 95.373 48.3714C95.373 30.3048 95.373 24.3258 95.373 8.06916H104.768V18.3099H114.994V26.7338H104.768V47.9587C104.768 49.5002 105.017 50.8216 105.516 51.9229C106.015 52.9689 106.818 53.7948 107.927 54.4001C111.255 56.0532 116.441 55.4519 119.981 55.0608V63.0721C116.745 63.5311 113.523 63.4848 110.255 63.4848Z" fill="black"/>
<path d="M110.255 63.4848C105.544 63.4848 101.886 62.1634 99.2804 59.5206C96.6757 56.8778 95.373 53.1615 95.373 48.3714C95.373 30.3048 95.373 24.3258 95.373 8.06916H104.768V18.3099H114.994V26.7338H104.768V47.9587C104.768 49.5002 105.017 50.8216 105.516 51.9229C106.015 52.9689 106.818 53.7948 107.927 54.4001C111.255 56.0532 116.441 55.4519 119.981 55.0608V63.0721C116.745 63.5311 113.523 63.4848 110.255 63.4848Z" fill="black"/>
<path d="M142.49 63.9803C139.109 63.9803 136.143 63.2372 133.594 61.7507C131.044 60.2087 129.049 58.0893 127.608 55.3912C126.222 52.6385 125.529 49.4727 125.529 45.8938V18.3099H134.924V45.0679C134.924 47.1054 135.34 48.8944 136.171 50.4363C137.002 51.9778 138.166 53.189 139.663 54.0698C141.159 54.8956 142.878 55.3088 144.818 55.3088C146.813 55.3088 148.559 54.8682 150.056 53.9874C151.552 53.1066 152.716 51.8676 153.547 50.2712C154.434 48.6743 154.877 46.8025 154.877 44.6551V18.3099H164.189V62.9893H155.293V54.2349L156.291 55.3912C155.238 58.1442 153.492 60.2641 151.053 61.7507C148.614 63.2372 145.76 63.9803 142.49 63.9803Z" fill="black"/>
<path d="M142.49 63.9803C139.109 63.9803 136.143 63.2372 133.594 61.7507C131.044 60.2087 129.049 58.0893 127.608 55.3912C126.222 52.6385 125.529 49.4727 125.529 45.8938V18.3099H134.924V45.0679C134.924 47.1054 135.34 48.8944 136.171 50.4363C137.002 51.9778 138.166 53.189 139.663 54.0698C141.159 54.8956 142.878 55.3088 144.818 55.3088C146.813 55.3088 148.559 54.8682 150.056 53.9874C151.552 53.1066 152.716 51.8676 153.547 50.2712C154.434 48.6743 154.877 46.8025 154.877 44.6551V18.3099H164.189V62.9893H155.293V54.2349L156.291 55.3912C155.238 58.1442 153.492 60.2641 151.053 61.7507C148.614 63.2372 145.76 63.9803 142.49 63.9803Z" fill="black"/>
<path d="M195.456 63.9803C191.133 63.9803 187.253 62.9618 183.817 60.9248C180.435 58.8324 177.747 56.0244 175.752 52.5008C173.812 48.9772 172.842 45.013 172.842 40.6083C172.842 36.2037 173.84 32.2396 175.835 28.7158C177.831 25.1921 180.519 22.4117 183.9 20.3746C187.281 18.3374 191.105 17.3189 195.373 17.3189C198.975 17.3189 202.162 18.0346 204.934 19.4661C207.705 20.8976 209.895 22.8797 211.502 25.4123L210.089 27.5596V0.47115H219.4V62.9893H210.504V53.905L211.585 55.6392C210.033 58.3369 207.816 60.4018 204.934 61.833C202.052 63.2647 198.893 63.9803 195.456 63.9803ZM196.371 55.3088C198.975 55.3088 201.303 54.6756 203.354 53.4095C205.46 52.143 207.096 50.4084 208.26 48.2062C209.479 45.9491 210.089 43.4163 210.089 40.6083C210.089 37.8004 209.479 35.2953 208.26 33.0929C207.096 30.8906 205.46 29.1563 203.354 27.89C201.303 26.6236 198.975 25.9905 196.371 25.9905C193.765 25.9905 191.41 26.6236 189.303 27.89C187.198 29.1563 185.562 30.8906 184.398 33.0929C183.234 35.2953 182.653 37.8004 182.653 40.6083C182.653 43.4163 183.234 45.9491 184.398 48.2062C185.562 50.4084 187.17 52.143 189.221 53.4095C191.327 54.6756 193.71 55.3088 196.371 55.3088Z" fill="black"/>
<path d="M195.456 63.9803C191.133 63.9803 187.253 62.9618 183.817 60.9248C180.435 58.8324 177.747 56.0244 175.752 52.5008C173.812 48.9772 172.842 45.013 172.842 40.6083C172.842 36.2037 173.84 32.2396 175.835 28.7158C177.831 25.1921 180.519 22.4117 183.9 20.3746C187.281 18.3374 191.105 17.3189 195.373 17.3189C198.975 17.3189 202.162 18.0346 204.934 19.4661C207.705 20.8976 209.895 22.8797 211.502 25.4123L210.089 27.5596V0.47115H219.4V62.9893H210.504V53.905L211.585 55.6392C210.033 58.3369 207.816 60.4018 204.934 61.833C202.052 63.2647 198.893 63.9803 195.456 63.9803ZM196.371 55.3088C198.975 55.3088 201.303 54.6756 203.354 53.4095C205.46 52.143 207.096 50.4084 208.26 48.2062C209.479 45.9491 210.089 43.4163 210.089 40.6083C210.089 37.8004 209.479 35.2953 208.26 33.0929C207.096 30.8906 205.46 29.1563 203.354 27.89C201.303 26.6236 198.975 25.9905 196.371 25.9905C193.765 25.9905 191.41 26.6236 189.303 27.89C187.198 29.1563 185.562 30.8906 184.398 33.0929C183.234 35.2953 182.653 37.8004 182.653 40.6083C182.653 43.4163 183.234 45.9491 184.398 48.2062C185.562 50.4084 187.17 52.143 189.221 53.4095C191.327 54.6756 193.71 55.3088 196.371 55.3088Z" fill="black"/>
<path d="M229.394 62.9893V18.3099H238.788V62.9893H229.394ZM229.394 12.1985V1.46219H238.788V12.1985H229.394Z" fill="black"/>
<path d="M229.394 62.9893V18.3099H238.788V62.9893H229.394ZM229.394 12.1985V1.46219H238.788V12.1985H229.394Z" fill="black"/>
<path d="M271.472 63.9803C267.149 63.9803 263.186 62.9618 259.583 60.9248C256.036 58.8878 253.209 56.1072 251.103 52.5836C248.996 49.0596 247.943 45.0679 247.943 40.6083C247.943 36.0936 248.996 32.1019 251.103 28.6333C253.209 25.1095 256.036 22.3566 259.583 20.3746C263.13 18.3374 267.093 17.3189 271.472 17.3189C275.906 17.3189 279.869 18.3374 283.361 20.3746C286.908 22.3566 289.707 25.1095 291.758 28.6333C293.864 32.1019 294.917 36.0936 294.917 40.6083C294.917 45.1233 293.864 49.1424 291.758 52.666C289.652 56.1896 286.825 58.9701 283.278 61.0071C279.73 62.9893 275.795 63.9803 271.472 63.9803ZM271.472 55.3088C274.132 55.3088 276.488 54.6756 278.539 53.4095C280.59 52.143 282.197 50.4084 283.361 48.2062C284.58 45.9491 285.19 43.4163 285.19 40.6083C285.19 37.8004 284.58 35.2953 283.361 33.0929C282.197 30.8906 280.59 29.1563 278.539 27.89C276.488 26.6236 274.132 25.9905 271.472 25.9905C268.867 25.9905 266.511 26.6236 264.405 27.89C262.354 29.1563 260.719 30.8906 259.5 33.0929C258.336 35.2953 257.754 37.8004 257.754 40.6083C257.754 43.4163 258.336 45.9491 259.5 48.2062C260.719 50.4084 262.354 52.143 264.405 53.4095C266.511 54.6756 268.867 55.3088 271.472 55.3088Z" fill="black"/>
<path d="M271.472 63.9803C267.149 63.9803 263.186 62.9618 259.583 60.9248C256.036 58.8878 253.209 56.1072 251.103 52.5836C248.996 49.0596 247.943 45.0679 247.943 40.6083C247.943 36.0936 248.996 32.1019 251.103 28.6333C253.209 25.1095 256.036 22.3566 259.583 20.3746C263.13 18.3374 267.093 17.3189 271.472 17.3189C275.906 17.3189 279.869 18.3374 283.361 20.3746C286.908 22.3566 289.707 25.1095 291.758 28.6333C293.864 32.1019 294.917 36.0936 294.917 40.6083C294.917 45.1233 293.864 49.1424 291.758 52.666C289.652 56.1896 286.825 58.9701 283.278 61.0071C279.73 62.9893 275.795 63.9803 271.472 63.9803ZM271.472 55.3088C274.132 55.3088 276.488 54.6756 278.539 53.4095C280.59 52.143 282.197 50.4084 283.361 48.2062C284.58 45.9491 285.19 43.4163 285.19 40.6083C285.19 37.8004 284.58 35.2953 283.361 33.0929C282.197 30.8906 280.59 29.1563 278.539 27.89C276.488 26.6236 274.132 25.9905 271.472 25.9905C268.867 25.9905 266.511 26.6236 264.405 27.89C262.354 29.1563 260.719 30.8906 259.5 33.0929C258.336 35.2953 257.754 37.8004 257.754 40.6083C257.754 43.4163 258.336 45.9491 259.5 48.2062C260.719 50.4084 262.354 52.143 264.405 53.4095C266.511 54.6756 268.867 55.3088 271.472 55.3088Z" fill="black"/>
<path d="M349.849 63.9803C345.469 63.9803 341.396 63.1819 337.627 61.5855C333.913 59.9886 330.671 57.7864 327.899 54.9785C325.184 52.1156 323.05 48.7567 321.498 44.9029C319.946 41.0488 319.17 36.8093 319.17 32.1845C319.17 27.6147 319.918 23.4027 321.414 19.5487C322.967 15.6396 325.128 12.281 327.899 9.47311C330.671 6.61012 333.913 4.40779 337.627 2.86617C341.341 1.26949 345.414 0.47115 349.849 0.47115C354.227 0.47115 358.135 1.21443 361.571 2.701C365.063 4.18756 368 6.14209 370.384 8.56464C372.767 10.9321 374.485 13.5199 375.538 16.3278L366.726 20.4572C365.396 17.1537 363.262 14.4834 360.324 12.4462C357.442 10.354 353.95 9.30793 349.849 9.30793C345.747 9.30793 342.116 10.2714 338.957 12.1985C335.798 14.1255 333.331 16.7958 331.558 20.2094C329.839 23.623 328.98 27.6147 328.98 32.1845C328.98 36.7543 329.839 40.7735 331.558 44.2422C333.331 47.6558 335.798 50.3261 338.957 52.2533C342.116 54.1251 345.747 55.0608 349.849 55.0608C353.95 55.0608 357.442 54.0423 360.324 52.0053C363.262 49.9683 365.396 47.298 366.726 43.9944L375.538 48.1239C374.485 50.8765 372.767 53.4644 370.384 55.8867C368 58.3094 365.063 60.2641 361.571 61.7507C358.135 63.2372 354.227 63.9803 349.849 63.9803Z" fill="black"/>
<path d="M349.849 63.9803C345.469 63.9803 341.396 63.1819 337.627 61.5855C333.913 59.9886 330.671 57.7864 327.899 54.9785C325.184 52.1156 323.05 48.7567 321.498 44.9029C319.946 41.0488 319.17 36.8093 319.17 32.1845C319.17 27.6147 319.918 23.4027 321.414 19.5487C322.967 15.6396 325.128 12.281 327.899 9.47311C330.671 6.61012 333.913 4.40779 337.627 2.86617C341.341 1.26949 345.414 0.47115 349.849 0.47115C354.227 0.47115 358.135 1.21443 361.571 2.701C365.063 4.18756 368 6.14209 370.384 8.56464C372.767 10.9321 374.485 13.5199 375.538 16.3278L366.726 20.4572C365.396 17.1537 363.262 14.4834 360.324 12.4462C357.442 10.354 353.95 9.30793 349.849 9.30793C345.747 9.30793 342.116 10.2714 338.957 12.1985C335.798 14.1255 333.331 16.7958 331.558 20.2094C329.839 23.623 328.98 27.6147 328.98 32.1845C328.98 36.7543 329.839 40.7735 331.558 44.2422C333.331 47.6558 335.798 50.3261 338.957 52.2533C342.116 54.1251 345.747 55.0608 349.849 55.0608C353.95 55.0608 357.442 54.0423 360.324 52.0053C363.262 49.9683 365.396 47.298 366.726 43.9944L375.538 48.1239C374.485 50.8765 372.767 53.4644 370.384 55.8867C368 58.3094 365.063 60.2641 361.571 61.7507C358.135 63.2372 354.227 63.9803 349.849 63.9803Z" fill="black"/>
<path d="M384.712 62.9893V18.3099H393.692V27.3119L392.86 25.9905C393.858 23.0724 395.465 20.9802 397.682 19.7139C399.899 18.3925 402.56 17.7318 405.664 17.7318H408.407V26.2382H404.5C401.396 26.2382 398.874 27.2017 396.934 29.1288C395.049 31.0007 394.107 33.6986 394.107 37.2223V62.9893H384.712Z" fill="black"/>
<path d="M384.712 62.9893V18.3099H393.692V27.3119L392.86 25.9905C393.858 23.0724 395.465 20.9802 397.682 19.7139C399.899 18.3925 402.56 17.7318 405.664 17.7318H408.407V26.2382H404.5C401.396 26.2382 398.874 27.2017 396.934 29.1288C395.049 31.0007 394.107 33.6986 394.107 37.2223V62.9893H384.712Z" fill="black"/>
<path d="M416.296 62.9893V18.3099H425.691V62.9893H416.296ZM416.296 12.1985V2.91431H425.691V12.1985H416.296Z" fill="black"/>
<path d="M416.296 62.9893V18.3099H425.691V62.9893H416.296ZM416.296 12.1985V2.91431H425.691V12.1985H416.296Z" fill="black"/>
<path d="M448.682 63.9803C445.633 63.9803 442.945 63.4573 440.617 62.4114C438.345 61.31 436.571 59.8235 435.296 57.9516C434.021 56.0244 433.384 53.7673 433.384 51.1794C433.384 48.7567 433.911 46.5819 434.964 44.6551C436.073 42.7281 437.763 41.1039 440.035 39.7825C442.308 38.4611 445.162 37.5251 448.599 36.9745L464.228 34.4143V41.7646L450.428 44.1596C447.934 44.6 446.105 45.3983 444.941 46.5545C443.777 47.6558 443.195 49.087 443.195 50.8491C443.195 52.5557 443.832 53.9599 445.107 55.0608C446.437 56.1072 448.128 56.6302 450.178 56.6302C452.728 56.6302 454.945 56.0798 456.83 54.9785C458.769 53.8771 460.264 52.4185 461.32 50.6015C462.371 48.7292 462.901 46.6648 462.901 44.4073V32.9278C462.901 30.7255 462.067 28.9361 460.404 27.5596C458.796 26.1281 456.635 25.4123 453.921 25.4123C451.426 25.4123 449.236 26.0731 447.352 27.3945C445.522 28.6608 444.165 30.3125 443.278 32.3496L435.463 28.4681C436.294 26.2658 437.652 24.3387 439.536 22.687C441.421 20.9802 443.61 19.6588 446.105 18.7228C448.654 17.7868 451.342 17.3189 454.17 17.3189C457.718 17.3189 460.848 17.9796 463.562 19.3009C466.335 20.6223 468.469 22.4668 469.964 24.8343C471.519 27.1467 472.293 29.8445 472.293 32.9278V62.9893H463.313V54.8956L465.225 55.1436C464.174 56.9606 462.815 58.5295 461.152 59.8509C459.544 61.1723 457.69 62.1908 455.584 62.9069C453.531 63.6225 451.231 63.9803 448.682 63.9803Z" fill="black"/>
<path d="M448.682 63.9803C445.633 63.9803 442.945 63.4573 440.617 62.4114C438.345 61.31 436.571 59.8235 435.296 57.9516C434.021 56.0244 433.384 53.7673 433.384 51.1794C433.384 48.7567 433.911 46.5819 434.964 44.6551C436.073 42.7281 437.763 41.1039 440.035 39.7825C442.308 38.4611 445.162 37.5251 448.599 36.9745L464.228 34.4143V41.7646L450.428 44.1596C447.934 44.6 446.105 45.3983 444.941 46.5545C443.777 47.6558 443.195 49.087 443.195 50.8491C443.195 52.5557 443.832 53.9599 445.107 55.0608C446.437 56.1072 448.128 56.6302 450.178 56.6302C452.728 56.6302 454.945 56.0798 456.83 54.9785C458.769 53.8771 460.264 52.4185 461.32 50.6015C462.371 48.7292 462.901 46.6648 462.901 44.4073V32.9278C462.901 30.7255 462.067 28.9361 460.404 27.5596C458.796 26.1281 456.635 25.4123 453.921 25.4123C451.426 25.4123 449.236 26.0731 447.352 27.3945C445.522 28.6608 444.165 30.3125 443.278 32.3496L435.463 28.4681C436.294 26.2658 437.652 24.3387 439.536 22.687C441.421 20.9802 443.61 19.6588 446.105 18.7228C448.654 17.7868 451.342 17.3189 454.17 17.3189C457.718 17.3189 460.848 17.9796 463.562 19.3009C466.335 20.6223 468.469 22.4668 469.964 24.8343C471.519 27.1467 472.293 29.8445 472.293 32.9278V62.9893H463.313V54.8956L465.225 55.1436C464.174 56.9606 462.815 58.5295 461.152 59.8509C459.544 61.1723 457.69 62.1908 455.584 62.9069C453.531 63.6225 451.231 63.9803 448.682 63.9803Z" fill="black"/>
<path d="M483.281 62.9893V18.3099H492.256V27.3119L491.427 25.9905C492.424 23.0724 494.032 20.9802 496.248 19.7139C498.463 18.3925 501.128 17.7318 504.231 17.7318H506.972V26.2382H503.067C499.963 26.2382 497.439 27.2017 495.5 29.1288C493.615 31.0007 492.673 33.6986 492.673 37.2223V62.9893H483.281Z" fill="black"/>
<path d="M483.281 62.9893V18.3099H492.256V27.3119L491.427 25.9905C492.424 23.0724 494.032 20.9802 496.248 19.7139C498.463 18.3925 501.128 17.7318 504.231 17.7318H506.972V26.2382H503.067C499.963 26.2382 497.439 27.2017 495.5 29.1288C493.615 31.0007 492.673 33.6986 492.673 37.2223V62.9893H483.281Z" fill="black"/>
<path d="M134.775 8.26219V18.582L154.628 10.3316V0.0117188L134.775 8.26219Z" fill="#FF7C00"/>
</svg>
