<svg width="1071" height="261" viewBox="0 0 1071 261" fill="none" xmlns="http://www.w3.org/2000/svg">
<path d="M1.35833 12.4203C2.05833 12.3203 2.85833 12.2203 3.65833 12.2203C25.6583 12.2203 47.6583 12.1203 69.6583 12.2203C80.2583 12.2203 90.6583 13.5203 100.758 16.9203C111.258 20.5203 120.358 26.1203 127.358 34.8203C134.258 43.3203 138.058 53.1203 139.658 63.8203C141.458 76.7203 140.458 89.3203 135.458 101.42C130.658 113.22 122.558 122.22 111.558 128.42C110.558 128.92 109.658 129.52 108.358 130.22C121.658 152.02 134.858 173.52 148.358 195.62C146.658 195.62 145.558 195.62 144.458 195.62C131.258 195.62 118.058 195.62 104.858 195.72C102.758 195.72 101.558 195.02 100.458 193.22C89.9583 176.02 79.2583 158.72 68.6583 141.32C67.2583 138.92 65.6583 137.92 62.7583 138.02C57.2583 138.22 51.7583 138.12 46.1583 138.12C44.9583 138.12 43.7583 138.12 42.0583 138.12C41.7583 143.12 41.9583 147.92 41.9583 152.72C41.9583 157.42 41.9583 162.12 41.9583 166.82C41.9583 171.62 41.9583 176.42 41.9583 181.22C41.9583 185.92 41.9583 190.62 41.9583 195.52H1.55833C0.858327 192.82 0.758327 15.3203 1.35833 12.4203ZM42.0583 100.42C43.0583 100.52 43.5583 100.62 44.0583 100.62C53.4583 100.62 62.8583 100.72 72.2583 100.52C75.1583 100.42 78.1583 99.9203 81.0583 99.2203C88.9583 97.2203 94.6583 92.6203 96.8583 84.6203C98.4583 78.8203 98.5583 72.9203 97.2583 67.0203C95.6583 59.7203 91.4583 54.7203 84.4583 52.2203C81.6583 51.2203 78.7583 50.3203 75.8583 50.2203C65.1583 49.8203 54.4583 49.8203 43.6583 49.7203C43.2583 49.7203 42.8583 49.8203 42.0583 50.0203C42.0583 66.8203 42.0583 83.5203 42.0583 100.42Z" fill="#FFF7E6"/>
<path d="M683.058 170.22V260.22C680.858 260.82 648.058 261.02 644.858 260.42V65.6202C646.958 65.0202 674.958 64.7202 679.458 65.4202C680.058 75.0203 680.658 84.6203 681.258 94.3203C681.558 94.4203 681.458 94.4202 681.758 94.4202C682.258 93.5202 682.658 92.6202 683.158 91.7202C686.858 84.2202 691.658 77.5202 698.258 72.2202C717.258 56.9202 749.058 57.9202 766.358 81.5202C772.758 90.3202 776.558 100.12 778.458 110.72C781.358 126.72 781.058 142.72 776.358 158.42C773.358 168.62 768.458 177.92 760.658 185.42C749.858 195.72 736.758 199.62 722.058 198.02C706.458 196.32 694.858 188.12 686.658 175.02C685.658 173.42 684.758 171.82 683.758 170.32C683.258 170.22 683.358 170.22 683.058 170.22ZM718.158 157.22C732.758 157.52 745.058 152.32 750.758 143.32C756.058 134.92 756.158 126.32 751.258 117.82C745.858 108.32 733.458 102.92 717.958 103.12C703.058 103.22 690.858 109.12 685.858 118.62C681.958 126.02 681.858 133.52 685.358 140.92C690.358 150.92 702.358 156.92 718.158 157.22Z" fill="#FFF7E6"/>
<path d="M591.558 118.42C592.558 105.52 586.258 96.9202 574.558 94.6202C568.758 93.5202 563.158 94.2203 557.958 97.3203C552.658 100.52 550.058 105.42 548.858 111.42H513.158C513.058 107.92 513.958 104.62 514.958 101.52C522.258 78.6202 538.358 66.0203 561.858 62.6203C574.558 60.8203 587.058 62.3203 598.858 67.4202C616.058 75.0202 626.258 88.2202 629.158 106.92C629.758 110.82 630.058 114.82 630.058 118.82C630.058 143.42 630.058 168.12 629.958 192.72C629.958 193.52 629.858 194.32 629.858 195.12C627.858 195.72 600.058 196.02 595.558 195.42C595.458 193.82 594.558 189.82 594.458 186.52C594.458 185.52 593.158 185.02 592.458 185.82C585.758 193.22 575.658 197.32 565.658 198.62C550.458 200.52 534.058 198.92 521.758 189.32C511.958 181.62 507.658 169.22 509.058 157.12C510.658 143.32 518.158 133.62 530.058 126.92C538.558 122.12 547.858 119.52 557.558 119.02C567.558 118.42 577.558 118.52 587.558 118.32C588.958 118.42 590.158 118.42 591.558 118.42ZM591.558 140.62C590.958 140.52 590.558 140.32 590.258 140.32C581.058 140.42 571.858 140.32 562.758 140.62C559.258 140.72 555.958 141.72 552.858 143.62C549.658 145.62 547.858 148.32 547.558 152.12C547.158 157.82 549.858 161.82 555.658 163.52C562.458 165.52 569.358 165.32 576.158 162.92C585.858 159.32 591.558 151.12 591.558 140.62Z" fill="#FFF7E6"/>
<path d="M1032.26 116.42C1033.26 103.52 1026.96 94.9202 1015.26 92.6202C1009.46 91.5202 1003.86 92.2203 998.658 95.3203C993.358 98.5203 990.758 103.42 989.558 109.42H953.958C953.858 105.92 954.758 102.62 955.758 99.5202C963.058 76.6202 979.158 64.0203 1002.66 60.6203C1015.36 58.8203 1027.86 60.3203 1039.66 65.4202C1056.86 73.0202 1067.06 86.2202 1069.96 104.92C1070.56 108.82 1070.86 112.82 1070.86 116.82C1070.86 141.42 1070.86 166.12 1070.76 190.72C1070.76 191.52 1070.66 192.32 1070.66 193.12C1068.66 193.72 1040.86 194.02 1036.36 193.42C1036.26 191.82 1035.36 187.82 1035.26 184.52C1035.26 183.52 1033.96 183.02 1033.26 183.82C1026.56 191.22 1016.46 195.32 1006.46 196.62C991.258 198.52 974.858 196.92 962.558 187.32C952.758 179.62 948.458 167.22 949.858 155.12C951.458 141.32 958.958 131.62 970.858 124.92C979.358 120.12 988.658 117.52 998.358 117.02C1008.36 116.42 1018.36 116.52 1028.36 116.32C1029.66 116.42 1030.86 116.42 1032.26 116.42ZM1032.26 138.62C1031.66 138.52 1031.26 138.32 1030.96 138.32C1021.76 138.42 1012.56 138.32 1003.46 138.62C999.958 138.72 996.658 139.72 993.558 141.62C990.358 143.62 988.558 146.32 988.258 150.12C987.858 155.82 990.558 159.82 996.358 161.52C1003.16 163.52 1010.06 163.32 1016.86 160.92C1026.56 157.32 1032.26 149.12 1032.26 138.62Z" fill="#FFF7E6"/>
<path d="M218.558 130.02C218.658 118.02 220.758 106.42 226.358 95.7202C233.958 81.1202 245.658 71.3202 261.158 66.1202C277.458 60.7202 293.958 60.5202 310.258 65.7202C331.258 72.4202 344.758 86.7202 350.958 107.72C355.558 123.32 355.458 139.12 350.358 154.52C343.158 176.42 328.158 190.32 305.758 195.92C291.158 199.62 276.558 199.32 262.158 194.62C239.558 187.22 225.958 171.32 220.458 148.42C219.158 142.32 218.558 136.22 218.558 130.02ZM316.358 128.42C318.058 124.22 319.658 118.72 320.558 113.42C323.158 97.2202 317.058 87.2202 304.358 87.0202C291.358 86.8202 277.158 96.2202 266.358 112.52C258.858 123.82 254.258 135.22 252.258 146.62C249.158 164.72 256.358 174.62 271.458 173.32C281.858 172.42 291.958 166.02 301.458 154.52C307.858 146.82 312.358 138.52 316.358 128.42Z" fill="#FFF7E6"/>
<path d="M497.558 117.02C496.158 117.02 495.158 117.02 494.158 117.02C483.758 117.02 473.258 116.92 462.858 117.12C460.358 117.12 459.158 116.42 458.058 114.02C450.758 97.1202 433.058 93.6203 420.158 99.3203C411.358 103.22 406.358 110.32 404.158 119.42C402.158 127.62 402.358 135.82 405.058 143.92C411.258 162.02 432.458 169.32 448.158 158.72C452.558 155.82 455.658 151.82 457.858 147.12C458.358 146.02 458.858 144.92 459.458 143.72H497.358C497.258 144.62 497.258 145.42 497.158 146.22C493.358 164.92 484.058 179.72 467.258 189.42C458.658 194.42 449.158 197.02 439.258 197.92C426.558 199.02 414.158 197.72 402.258 192.62C387.058 186.12 376.158 175.22 370.058 159.82C362.358 140.32 362.258 120.42 369.858 100.82C376.658 83.4203 389.358 71.8203 407.058 65.9202C424.458 60.2203 441.958 60.3202 459.058 67.0202C477.358 74.1202 489.158 87.6203 495.058 106.32C495.758 108.62 496.358 111.02 496.858 113.42C497.158 114.42 497.258 115.42 497.558 117.02Z" fill="#FFF7E6"/>
<path d="M831.458 195.62H793.258V65.3203H827.858C828.458 73.7203 829.058 82.1202 829.658 90.5202C835.258 79.9202 842.558 71.3203 853.558 66.3203C859.758 63.4203 866.358 62.3203 873.058 62.0203C873.858 64.3203 874.058 95.3202 873.358 100.62C872.158 100.72 870.858 100.72 869.558 100.82C863.458 100.92 857.258 100.52 851.258 101.92C846.858 102.82 842.858 104.42 839.258 107.22C834.358 110.92 831.858 115.82 831.558 121.92C831.458 123.32 831.558 124.82 831.558 126.22C831.558 147.92 831.558 169.62 831.558 191.22C831.458 192.42 831.458 193.82 831.458 195.62Z" fill="#FFF7E6"/>
<path d="M203.058 195.72H165.058C164.358 193.42 164.058 69.4203 164.758 65.3203H202.958C203.058 66.3203 203.258 67.4203 203.258 68.4203C203.258 109.72 203.258 151.02 203.258 192.32C203.258 193.32 203.158 194.32 203.058 195.72Z" fill="#FFF7E6"/>
<path d="M183.758 0.0202537C196.558 -0.179746 206.958 9.92025 207.158 22.6203C207.358 35.8203 197.358 46.1203 184.158 46.3203C171.058 46.5203 160.658 36.5203 160.558 23.3203C160.458 10.2203 170.358 0.220254 183.758 0.0202537Z" fill="#FFF7E6"/>
<path d="M889.458 65.1203H927.658C927.758 66.2203 927.958 67.3203 927.958 68.4203C927.958 109.72 927.958 151.02 927.958 192.32C927.958 193.32 927.858 194.32 927.758 195.62H889.758C888.958 193.32 888.658 69.8203 889.458 65.1203Z" fill="#FFF7E6"/>
<path d="M931.858 23.0203C931.858 36.1203 921.658 46.4203 908.558 46.4203C895.358 46.4203 885.258 36.3203 885.258 23.0203C885.258 9.92025 895.458 0.0202537 908.858 0.0202537C921.558 0.0202537 931.758 10.2203 931.858 23.0203Z" fill="#FFF7E6"/>
</svg>
