<svg viewBox="0 0 24 24" xmlns="http://www.w3.org/2000/svg"><g id="Icon"><path d="m18.86 16.14a2.75 2.75 0 0 1 -.61 3.86l-1.74 1.26a3.69 3.69 0 0 1 -2.2.72 3.8 3.8 0 0 1 -1.73-.42 19.52 19.52 0 0 1 -10.2-14 3.74 3.74 0 0 1 1.5-3.65l1.73-1.32a2.73 2.73 0 0 1 2.05-.49 2.69 2.69 0 0 1 1.79 1.1l1.18 1.61a2.76 2.76 0 0 1 -.63 3.85l-1.14.82a15.91 15.91 0 0 0 3.83 5.26l1.13-.82a2.75 2.75 0 0 1 3.84.6zm-5.33-9.26a4.64 4.64 0 0 1 3 4.18.75.75 0 0 0 .75.72.75.75 0 0 0 .72-.77 6.13 6.13 0 0 0 -4-5.53.74.74 0 0 0 -1 .44.75.75 0 0 0 .53.96zm1.81-4.78a.75.75 0 1 0 -.59 1.38 9 9 0 0 1 5.42 7.52.76.76 0 0 0 .75.68h.08a.76.76 0 0 0 .68-.82 10.45 10.45 0 0 0 -6.34-8.76z"/></g></svg>