<svg xmlns="http://www.w3.org/2000/svg" version="1.1" xmlns:xlink="http://www.w3.org/1999/xlink" width="512" height="512" x="0" y="0" viewBox="0 0 12.7 12.7" style="enable-background:new 0 0 512 512" xml:space="preserve"><g><path d="M3.875.793a1.16 1.16 0 0 0-1.158 1.073c-.02.268.061.547.237.78H1.588a.265.265 0 0 0-.265.264v2.118c0 .146.12.264.265.264h.264v5.822c0 .445.384.793.83.793h7.338c.446 0 .828-.348.828-.793V5.292h.266a.265.265 0 0 0 .263-.264V2.91a.265.265 0 0 0-.263-.263H9.746a1.16 1.16 0 0 0 .237-.781A1.157 1.157 0 0 0 8.827.793c-.684 0-1.315.521-1.819 1-.382.364-.534.571-.658.725-.124-.154-.276-.361-.658-.724-.504-.48-1.133-1-1.817-1zm0 .53c.375 0 .982.407 1.452.853.175.167.323.327.453.47H3.91c-.544-.114-.689-.434-.665-.74.023-.307.234-.583.63-.583zm4.952 0c.396 0 .605.276.628.584.024.305-.121.625-.666.74H6.92a8.06 8.06 0 0 1 .453-.47c.47-.447 1.079-.854 1.454-.854zM1.852 3.177h3.176v1.585H1.852zm3.705 0h1.588v8.2H5.557v-8.2zm2.117 0h3.174v1.585H7.674zM2.381 5.292h2.647v6.086H2.682c-.18 0-.301-.122-.301-.264zm5.293 0h2.644v5.822c0 .142-.119.264-.298.264H7.674z" paint-order="stroke fill markers" fill="#4a4031" opacity="1" data-original="#000000"></path></g></svg>