<svg xmlns="http://www.w3.org/2000/svg" version="1.1" xmlns:xlink="http://www.w3.org/1999/xlink" width="512" height="512" x="0" y="0" viewBox="0 0 682.667 682.667" style="enable-background:new 0 0 512 512" xml:space="preserve" class=""><g><defs><clipPath id="a" clipPathUnits="userSpaceOnUse"><path d="M0 512h512V0H0Z" fill="#4a4031" opacity="1" data-original="#000000"></path></clipPath></defs><g clip-path="url(#a)" transform="matrix(1.33333 0 0 -1.33333 0 682.667)"><path d="m0 0-71.933-124.592-17.602 65.688-65.93-17.666 69.022 119.55" style="stroke-width:20;stroke-linecap:round;stroke-linejoin:round;stroke-miterlimit:10;stroke-dasharray:none;stroke-opacity:1" transform="translate(219.312 134.617)" fill="none" stroke="#4a4031" stroke-width="20" stroke-linecap="round" stroke-linejoin="round" stroke-miterlimit="10" stroke-dasharray="none" stroke-opacity="" data-original="#000000" opacity="1" class=""></path><path d="m0 0 69.29-120.014-65.93 17.666-17.602-65.689-72.297 125.222" style="stroke-width:20;stroke-linecap:round;stroke-linejoin:round;stroke-miterlimit:10;stroke-dasharray:none;stroke-opacity:1" transform="translate(378.863 178.062)" fill="none" stroke="#4a4031" stroke-width="20" stroke-linecap="round" stroke-linejoin="round" stroke-miterlimit="10" stroke-dasharray="none" stroke-opacity="" data-original="#000000" opacity="1" class=""></path><path d="M0 0v0c19.926 8.155 42.845 2.014 56.023-15.011v0A47.898 47.898 0 0 1 87.45-33.155v0c21.334-2.901 38.111-19.678 41.012-41.012v0a47.898 47.898 0 0 1 18.144-31.427v0c17.025-13.178 23.166-36.097 15.011-56.023v0a47.901 47.901 0 0 1 0-36.288v0c8.155-19.926 2.014-42.844-15.011-56.023v0a47.898 47.898 0 0 1-18.144-31.426v-.001c-2.901-21.333-19.678-38.111-41.012-41.012v0a47.9 47.9 0 0 1-31.427-18.143v0C42.845-361.536 19.926-367.677 0-359.522v0a47.901 47.901 0 0 1-36.288 0v0c-19.926-8.155-42.844-2.014-56.023 15.012v0a47.901 47.901 0 0 1-31.426 18.143h-.001c-21.333 2.901-38.111 19.679-41.011 41.012v.001a47.906 47.906 0 0 1-18.144 31.426v0c-17.026 13.179-23.167 36.097-15.012 56.023v0a47.901 47.901 0 0 1 0 36.288v0c-8.155 19.926-2.014 42.845 15.012 56.023v0a47.906 47.906 0 0 1 18.144 31.427v0c2.9 21.334 19.678 38.111 41.011 41.012h.001a47.898 47.898 0 0 1 31.426 18.144v0C-79.132 2.014-56.214 8.155-36.288 0v0A47.901 47.901 0 0 1 0 0Z" style="stroke-width:20;stroke-linecap:round;stroke-linejoin:round;stroke-miterlimit:10;stroke-dasharray:none;stroke-opacity:1" transform="translate(273.829 498.403)" fill="none" stroke="#4a4031" stroke-width="20" stroke-linecap="round" stroke-linejoin="round" stroke-miterlimit="10" stroke-dasharray="none" stroke-opacity="" data-original="#000000" opacity="1" class=""></path><path d="m0 0-58.353 58.354 31.114 31.112L0 62.226l50.138 50.137L81.25 81.25Z" style="stroke-width:20;stroke-linecap:round;stroke-linejoin:round;stroke-miterlimit:10;stroke-dasharray:none;stroke-opacity:1" transform="translate(244.55 259.095)" fill="none" stroke="#4a4031" stroke-width="20" stroke-linecap="round" stroke-linejoin="round" stroke-miterlimit="10" stroke-dasharray="none" stroke-opacity="" data-original="#000000" opacity="1" class=""></path><path d="M0 0c-44.394-17.604-75.787-60.932-75.787-111.593 0-66.274 53.726-120 120-120s120 53.726 120 120c0 50.661-31.393 93.989-75.786 111.593" style="stroke-width:20;stroke-linecap:round;stroke-linejoin:round;stroke-miterlimit:10;stroke-dasharray:none;stroke-opacity:1" transform="translate(211.787 426.87)" fill="none" stroke="#4a4031" stroke-width="20" stroke-linecap="round" stroke-linejoin="round" stroke-miterlimit="10" stroke-dasharray="none" stroke-opacity="" data-original="#000000" opacity="1" class=""></path><path d="M0 0v0" style="stroke-width:20;stroke-linecap:round;stroke-linejoin:round;stroke-miterlimit:10;stroke-dasharray:none;stroke-opacity:1" transform="translate(256 435.277)" fill="none" stroke="#4a4031" stroke-width="20" stroke-linecap="round" stroke-linejoin="round" stroke-miterlimit="10" stroke-dasharray="none" stroke-opacity="" data-original="#000000" opacity="1" class=""></path></g></g></svg>