<svg id="Layer_2" enable-background="new 0 0 512 512" viewBox="0 0 512 512" xmlns="http://www.w3.org/2000/svg"><g><g><g><g><path d="m415.31 512h-318.62c-24.41 0-47.2-10.67-62.52-29.29-14.84-18.02-20.79-41.4-16.34-64.15l54.22-277.03c1.3-6.65 7.13-11.45 13.91-11.45h340.09c6.78 0 12.6 4.8 13.91 11.45l54.22 277.03c4.45 22.74-1.51 46.12-16.34 64.15-15.33 18.62-38.12 29.29-62.53 29.29zm-317.69-353.57-51.98 265.58c-2.82 14.4.98 29.23 10.41 40.69 9.92 12.05 24.73 18.96 40.64 18.96h318.62c15.91 0 30.72-6.91 40.64-18.96 9.43-11.46 13.23-26.29 10.41-40.69l-51.98-265.58z"/></g></g></g><g><g><path d="m363.25 222.96c-7.83 0-14.17-6.34-14.17-14.17v-87.37c0-51.32-41.76-93.08-93.08-93.08s-93.08 41.76-93.08 93.08v87.37c0 7.83-6.34 14.17-14.17 14.17s-14.17-6.34-14.17-14.17v-87.37c0-66.95 54.47-121.42 121.42-121.42s121.42 54.47 121.42 121.42v87.37c0 7.82-6.34 14.17-14.17 14.17z"/></g></g></g></svg>