<svg id="Layer_1" height="512" viewBox="0 0 32 32" width="512" xmlns="http://www.w3.org/2000/svg" xmlns:xlink="http://www.w3.org/1999/xlink" data-name="Layer 1"><clipPath id="clip-path"><path d="m0 0h32v32h-32z"/></clipPath><g clip-path="url(#clip-path)" fill="rgb(0,0,0)"><path d="m16 14a6 6 0 1 0 -6-6 6 6 0 0 0 6 6zm0-10a4 4 0 1 1 -4 4 4 4 0 0 1 4-4z"/><path d="m16 16c-7.27 0-13.5 5-13.5 9 0 4.41 6.82 5 13.5 5s13.5-.59 13.5-5c0-4-6.23-9-13.5-9zm0 12c-2.84 0-11.5 0-11.5-3 0-2.76 5.15-7 11.5-7s11.5 4.24 11.5 7c0 3-8.66 3-11.5 3z"/></g></svg>