<svg height="512" viewBox="0 0 152 152" width="512" xmlns="http://www.w3.org/2000/svg"><g id="Layer_2" data-name="Layer 2"><g id="Color"><g id="_08.Whatsapp" data-name="08.Whatsapp"><circle id="Background" cx="76" cy="76" fill="#4caf50" r="76"/><path id="Icon" d="m76 36a40 40 0 0 0 -32.39 63.45l-5 14.86 15.39-4.92a40 40 0 1 0 22-73.39zm21.26 56.57-4.26 4.26c-4.48 4.48-16.36-.45-26.89-11s-15.25-22.4-10.99-26.83l4.26-4.26a4.47 4.47 0 0 1 6.05 0l6.28 6.26a4.17 4.17 0 0 1 -1.57 6.94 4.07 4.07 0 0 0 -2.69 4.94c1.12 4.7 7.17 10.53 11.66 11.65a4.27 4.27 0 0 0 4.89-2.72 4.18 4.18 0 0 1 7-1.57l6.27 6.28a4.47 4.47 0 0 1 -.01 6.05z" fill="#fff"/></g></g></g></svg>